<svg xmlns="http://www.w3.org/2000/svg" width="88.6" height="88.595" viewBox="0 0 17.72 17.719">
  <defs>
    <style>
      .cls-1 {
        fill: #375fc9;
        fill-rule: evenodd;
      }
    </style>
  </defs>
  <path id="Path_34" data-name="Path 34" class="cls-1" d="M1090.43,838.993a8.7,8.7,0,0,1-2.76-.442,8.837,8.837,0,0,1-2.86-1.572c-0.09-.078-0.19-0.161-0.28-0.25-0.05-.04-0.09-0.08-0.14-0.12a8.825,8.825,0,0,1-2.62-4.605v-0.029l-0.01-.027a8.745,8.745,0,0,1,0-3.626,8.754,8.754,0,0,1,2.71-4.732l0.06-.056c0.08-.076.18-0.162,0.28-0.244a8.91,8.91,0,0,1,2.86-1.571h0a8.929,8.929,0,0,1,5.52,0v0a8.735,8.735,0,0,1,2.93,1.632,2.532,2.532,0,0,1,.22.193c0.03,0.03.07,0.06,0.1,0.091a8.907,8.907,0,0,1,2.66,4.652v0.032a8.812,8.812,0,0,1,0,3.64v0.021a8.922,8.922,0,0,1-2.77,4.759c-0.06.06-.14,0.129-0.22,0.194a8.68,8.68,0,0,1-2.92,1.625v0a8.875,8.875,0,0,1-2.67.436h-0.09Zm-0.04-1.288a7.365,7.365,0,0,0,2.17-.3l0.66-1.148-1.39-2.416h-2.79l-1.4,2.416,0.66,1.146A7.611,7.611,0,0,0,1090.39,837.705Zm3.95-2.094h1.31a7.646,7.646,0,0,0,2.14-3.684l-0.66-1.148h-2.79l-1.4,2.416Zm-9.13,0h1.32l1.39-2.416-1.39-2.416h-2.79l-0.66,1.142A7.454,7.454,0,0,0,1085.21,835.611Zm3.83-3.06h2.79l1.39-2.416-1.39-2.416h-2.79l-1.4,2.416Zm5.3-3.06h2.79l0.66-1.147a7.577,7.577,0,0,0-2.14-3.685h-1.31l-1.4,2.416Zm-10.6,0h2.79l1.39-2.416-1.39-2.416h-1.32a7.461,7.461,0,0,0-2.13,3.69Zm5.3-3.06h2.79l1.39-2.416-0.66-1.148a7.665,7.665,0,0,0-4.26,0l-0.66,1.145Z" transform="translate(-1081.56 -821.281)"/>
</svg>
