<svg id="Logo" xmlns="http://www.w3.org/2000/svg" width="69" height="69" viewBox="0 0 69 69">
  <defs>
    <style>
      .cls-1 {
        fill: #606368;
      }

      .cls-1, .cls-2, .cls-3 {
        fill-rule: evenodd;
      }

      .cls-2 {
        fill: #f03135;
      }

      .cls-3 {
        fill: #fff;
      }
    </style>
  </defs>
  <path id="Path_1" data-name="Path 1" class="cls-1" d="M137.75,412a34.5,34.5,0,1,0,34.5,34.5,34.5,34.5,0,0,0-34.5-34.5h0Zm0,7.138A27.362,27.362,0,1,1,110.388,446.5,27.392,27.392,0,0,1,137.75,419.138Z" transform="translate(-103.25 -412)"/>
  <path id="Path_2" data-name="Path 2" class="cls-2" d="M172.25,446.5a34.606,34.606,0,0,0-.8-7.376H160.705a2.018,2.018,0,0,0-1.918-1.413h-2.329a2.018,2.018,0,0,0-1.918,1.413h-9.414V423.678a23.115,23.115,0,0,0-15.077.111v15.335H117.18c-0.108-.093-0.217-0.184-0.332-0.27a7.77,7.77,0,0,0-4.744-1.35,8.287,8.287,0,0,0-3.838.831,7.843,7.843,0,0,0-1.23.789h-2.988a34.636,34.636,0,0,0-.107,14.276h4.689a8.941,8.941,0,0,0,3.607.712,10.2,10.2,0,0,0,3.694-.7l0.018-.008h4.192a6.675,6.675,0,0,0,3.126.7,6.367,6.367,0,0,0,3.029-.7h3.753v15.81a23.106,23.106,0,0,0,15.077.112V455.891a4.739,4.739,0,0,0,.4.362,6.857,6.857,0,0,0,4.455,1.224,8.526,8.526,0,0,0,2.578-.345,5.19,5.19,0,0,0,2.012-1.145,4.894,4.894,0,0,0,1.249-2.039c0.015-.044.029-0.088,0.042-0.134a2.018,2.018,0,0,0,.6.091h2.329a2.01,2.01,0,0,0,1.331-.5h0.618a5.327,5.327,0,0,0,2.75.7,5.7,5.7,0,0,0,2.139-.409,2.023,2.023,0,0,0,.894.21h2.3a2.006,2.006,0,0,0,1.334-.5h1.4A34.622,34.622,0,0,0,172.25,446.5Zm-22.26-13.324h-0.343V430.8h0.343a3.79,3.79,0,0,0,2.262.94,3.793,3.793,0,0,0-.94-2.263v-0.343h2.379v0.343a3.793,3.793,0,0,0-.94,2.263,3.79,3.79,0,0,0,2.263-.94h0.343v2.379h-0.343a3.784,3.784,0,0,0-2.263-.94,3.79,3.79,0,0,0,.94,2.262v0.343h-2.379V434.5a3.79,3.79,0,0,0,.94-2.262A3.784,3.784,0,0,0,149.99,433.176Zm-29.98,0h-0.343V430.8h0.343a3.79,3.79,0,0,0,2.263.94,3.793,3.793,0,0,0-.94-2.263v-0.343h2.379v0.343a3.793,3.793,0,0,0-.94,2.263,3.79,3.79,0,0,0,2.262-.94h0.343v2.379h-0.343a3.784,3.784,0,0,0-2.262-.94,3.79,3.79,0,0,0,.94,2.262v0.343h-2.379V434.5a3.79,3.79,0,0,0,.94-2.262A3.784,3.784,0,0,0,120.01,433.176Zm35,27.6h0.343v2.379h-0.343a3.784,3.784,0,0,0-2.263-.94,3.793,3.793,0,0,0,.94,2.263v0.343h-2.379v-0.343a3.793,3.793,0,0,0,.94-2.263,3.784,3.784,0,0,0-2.262.94h-0.343v-2.379h0.343a3.79,3.79,0,0,0,2.262.94,3.793,3.793,0,0,0-.94-2.263V459.11h2.379v0.343a3.793,3.793,0,0,0-.94,2.263A3.79,3.79,0,0,0,155.014,460.776Zm-29.98,0h0.343v2.379h-0.343a3.784,3.784,0,0,0-2.262-.94,3.793,3.793,0,0,0,.94,2.263v0.343h-2.379v-0.343a3.793,3.793,0,0,0,.94-2.263,3.784,3.784,0,0,0-2.263.94h-0.343v-2.379h0.343a3.79,3.79,0,0,0,2.263.94,3.793,3.793,0,0,0-.94-2.263V459.11h2.379v0.343a3.793,3.793,0,0,0-.94,2.263A3.79,3.79,0,0,0,125.034,460.776Z" transform="translate(-103.25 -412)"/>
  <path id="Path_3" data-name="Path 3" class="cls-3" d="M118.123,445.369v4.84a0.125,0.125,0,0,1-.035.086,6.63,6.63,0,0,1-2.219,1.338,7.913,7.913,0,0,1-2.932.576,6.5,6.5,0,0,1-3.3-.815,5.182,5.182,0,0,1-2.127-2.34,7.7,7.7,0,0,1-.706-3.287,7.29,7.29,0,0,1,.79-3.43,5.427,5.427,0,0,1,2.322-2.312,6.143,6.143,0,0,1,2.891-.618,5.691,5.691,0,0,1,3.518.973,4.433,4.433,0,0,1,1.641,2.693,0.119,0.119,0,0,1-.092.143l-2.377.455a0.116,0.116,0,0,1-.133-0.084,2.468,2.468,0,0,0-.9-1.35,2.706,2.706,0,0,0-1.658-.5,3.108,3.108,0,0,0-2.41.981,4.274,4.274,0,0,0-.9,2.944,4.75,4.75,0,0,0,.909,3.166,3,3,0,0,0,2.372,1.041,3.948,3.948,0,0,0,1.466-.294,5.155,5.155,0,0,0,1.224-.682v-1.363h-2.625a0.118,0.118,0,0,1-.117-0.119v-2.047a0.118,0.118,0,0,1,.117-0.119h5.159A0.118,0.118,0,0,1,118.123,445.369Zm8.463-1.268a5.984,5.984,0,0,1,1.087,4.054,0.118,0.118,0,0,1-.115.118h-5.573a2.215,2.215,0,0,0,.514,1.411,1.579,1.579,0,0,0,1.225.538,1.251,1.251,0,0,0,.826-0.272,1.758,1.758,0,0,0,.51-0.9,0.115,0.115,0,0,1,.131-0.084l2.264,0.39a0.115,0.115,0,0,1,.081.056,0.125,0.125,0,0,1,.01.1,3.935,3.935,0,0,1-1.423,2,4.1,4.1,0,0,1-2.423.688,3.927,3.927,0,0,1-3.409-1.548,5.274,5.274,0,0,1-.872-3.1,5.073,5.073,0,0,1,1.147-3.507,3.763,3.763,0,0,1,2.908-1.277A3.9,3.9,0,0,1,126.586,444.1Zm-1.406,2.508a2.083,2.083,0,0,0-.473-1.337,1.422,1.422,0,0,0-1.1-.489,1.439,1.439,0,0,0-1.142.516,2.006,2.006,0,0,0-.447,1.31h3.158Zm11.4-2.513a4.677,4.677,0,0,1,1.279,3.361,4.728,4.728,0,0,1-1.291,3.394,4.328,4.328,0,0,1-3.249,1.349,5.028,5.028,0,0,1-2.3-.559,3.832,3.832,0,0,1-1.679-1.653,5.6,5.6,0,0,1-.572-2.63,5,5,0,0,1,.571-2.3,4.009,4.009,0,0,1,1.628-1.707,4.734,4.734,0,0,1,2.34-.586A4.364,4.364,0,0,1,136.584,444.1Zm-1.863,1.46a1.838,1.838,0,0,0-2.815,0,3.5,3.5,0,0,0,0,3.852,1.835,1.835,0,0,0,2.814,0,2.9,2.9,0,0,0,.574-1.943A2.849,2.849,0,0,0,134.721,445.556Zm8.776-2.792a1.877,1.877,0,0,0-1.046.3,3.125,3.125,0,0,0-.795.872v-0.855a0.119,0.119,0,0,0-.117-0.119h-2.11a0.118,0.118,0,0,0-.116.119v8.8a0.118,0.118,0,0,0,.116.119H141.7a0.117,0.117,0,0,0,.115-0.119v-2.718a14.186,14.186,0,0,1,.186-2.919,1.754,1.754,0,0,1,.482-0.912,1.425,1.425,0,0,1,1.741.118,0.106,0.106,0,0,0,.1.012,0.115,0.115,0,0,0,.072-0.072l0.7-2.03a0.121,0.121,0,0,0-.05-0.143A2.961,2.961,0,0,0,143.5,442.764Zm10.459,0.317v7.9a8.216,8.216,0,0,1-.257,2.367,3.011,3.011,0,0,1-.734,1.258,3.208,3.208,0,0,1-1.253.715,6.351,6.351,0,0,1-1.949.254,4.981,4.981,0,0,1-3.17-.793,2.55,2.55,0,0,1-.956-2.035c0-.08,0-0.175.008-0.288a0.119,0.119,0,0,1,.041-0.085,0.113,0.113,0,0,1,.089-0.027l2.595,0.323a0.117,0.117,0,0,1,.1.1,0.817,0.817,0,0,0,.253.559,1.584,1.584,0,0,0,.951.226,2.487,2.487,0,0,0,1.274-.257,1.009,1.009,0,0,0,.4-0.529,3.526,3.526,0,0,0,.1-1.026V450.8A3.1,3.1,0,0,1,149,452a3.266,3.266,0,0,1-2.836-1.552,5.327,5.327,0,0,1-.813-3.018,5.072,5.072,0,0,1,1.069-3.461,3.441,3.441,0,0,1,2.669-1.207,3.174,3.174,0,0,1,2.513,1.212v-0.895a0.118,0.118,0,0,1,.116-0.119h2.127A0.119,0.119,0,0,1,153.956,443.081Zm-2.987,2.324a1.6,1.6,0,0,0-1.3-.622,1.54,1.54,0,0,0-1.257.608,3.011,3.011,0,0,0-.5,1.909,3.141,3.141,0,0,0,.5,1.975,1.5,1.5,0,0,0,1.217.607,1.663,1.663,0,0,0,1.32-.626,2.86,2.86,0,0,0,.545-1.9A3.035,3.035,0,0,0,150.969,445.405Zm7.391-5.791h-2.273a0.119,0.119,0,0,0-.116.119v2.155a0.118,0.118,0,0,0,.116.119h2.273a0.117,0.117,0,0,0,.116-0.119v-2.155A0.118,0.118,0,0,0,158.36,439.614Zm0,3.348h-2.273a0.119,0.119,0,0,0-.116.119v8.8a0.119,0.119,0,0,0,.116.119h2.273a0.118,0.118,0,0,0,.116-0.119v-8.8A0.118,0.118,0,0,0,158.36,442.962Zm9.892,8.984a0.117,0.117,0,0,1-.1.056h-2.248a0.115,0.115,0,0,1-.108-0.076c-0.061-.158-0.133-0.387-0.222-0.7-0.008-.033-0.017-0.063-0.025-0.09a4.136,4.136,0,0,1-1.144.763,3.616,3.616,0,0,1-1.461.3,3,3,0,0,1-2.17-.77,2.607,2.607,0,0,1-.8-1.951,2.671,2.671,0,0,1,.365-1.392,2.411,2.411,0,0,1,1.023-.94,7.537,7.537,0,0,1,1.835-.552,13.076,13.076,0,0,0,2.114-.536v-0.151a1.116,1.116,0,0,0-.283-0.867,1.816,1.816,0,0,0-1.145-.258,1.5,1.5,0,0,0-.88.223,1.6,1.6,0,0,0-.507.8,0.116,0.116,0,0,1-.13.078l-2.062-.381a0.118,0.118,0,0,1-.078-0.054,0.122,0.122,0,0,1-.014-0.1,3.427,3.427,0,0,1,1.242-1.955,4.428,4.428,0,0,1,2.59-.635,5.463,5.463,0,0,1,2.315.38,2.409,2.409,0,0,1,1.1.987,4.962,4.962,0,0,1,.317,2.141l-0.024,2.719a9.52,9.52,0,0,0,.107,1.687,4.951,4.951,0,0,0,.4,1.153A0.118,0.118,0,0,1,168.252,451.946Zm-4.183-3.817a4.025,4.025,0,0,0-1.2.389,0.855,0.855,0,0,0-.393.721,1.03,1.03,0,0,0,.322.76,1.1,1.1,0,0,0,.824.323,1.83,1.83,0,0,0,1.1-.392,1.343,1.343,0,0,0,.5-0.708,4.591,4.591,0,0,0,.085-1.1v-0.3C165.018,447.908,164.6,448.013,164.069,448.129Z" transform="translate(-103.25 -412)"/>
</svg>
